<svg width="147.205872" height="54.006042" viewBox="0 0 147.206 54.006" fill="none" xmlns="http://www.w3.org/2000/svg" xmlns:xlink="http://www.w3.org/1999/xlink">
	<desc>
			Created with Pixso.
	</desc>
	<defs/>
	<rect id="Rectangle 6" x="0.794067" width="40.235294" height="5.029412" fill="#003399" fill-opacity="1.000000"/>
	<rect id="Rectangle 7" x="0.794067" y="10.058838" width="40.235294" height="5.029412" fill="#003399" fill-opacity="1.000000"/>
	<rect id="Rectangle 8" x="0.794067" y="19.852905" width="40.235294" height="5.029412" fill="#003399" fill-opacity="1.000000"/>
	<path id="BANK" d="M72.64 23.91L64.53 23.91L64.53 2.73L72.28 2.73C76.79 2.73 78.96 5.16 78.96 8.3C78.96 10.94 77.34 12.26 75.39 12.76L75.39 12.97C77.49 13.08 79.79 14.93 79.79 18.21C79.79 21.45 77.56 23.91 72.64 23.91ZM88.76 18.31L86.82 23.91L83.43 23.91L91.05 2.73L94.74 2.73L102.36 23.91L98.97 23.91L97.03 18.31L88.76 18.31ZM120.8 2.73L123.96 2.73L123.96 23.91L121.03 23.91L110.26 8.37L110.06 8.37L110.06 23.91L106.86 23.91L106.86 2.73L109.82 2.73L120.6 18.28L120.8 18.28L120.8 2.73ZM133.26 23.91L130.07 23.91L130.07 2.73L133.26 2.73L133.26 12.85L133.52 12.85L142.41 2.73L146.42 2.73L137.89 12.26L146.46 23.91L142.61 23.91L135.77 14.44L133.26 17.32L133.26 23.91ZM67.72 5.45L67.72 11.89L72 11.89C74.15 11.89 75.83 10.59 75.83 8.54C75.83 6.78 74.62 5.45 72.09 5.45L67.72 5.45ZM92.82 6.58L89.69 15.61L96.1 15.61L92.98 6.58L92.82 6.58ZM67.72 14.38L67.72 21.17L72.33 21.17C75.4 21.17 76.62 19.83 76.62 18.06C76.62 16.04 75.01 14.38 72.44 14.38L67.72 14.38Z" fill="#003399" fill-opacity="1.000000" fill-rule="evenodd"/>
	<path id="TRANSFER" d="M90.92 39.23L89.22 39.23C89.01 37.09 87.18 35.73 84.63 35.73C81.94 35.73 80.1 37.24 80.1 39.31C80.1 41.34 82.06 42.29 83.93 42.81L85.96 43.4C88.41 44.08 91.19 45.36 91.19 48.56C91.19 51.64 88.69 54 84.51 54C80.58 54 78.1 51.91 77.89 48.86L79.7 48.86C79.89 51.14 81.92 52.39 84.51 52.39C87.39 52.39 89.49 50.84 89.49 48.53C89.49 46.56 87.85 45.67 85.46 44.98L83.16 44.3C80.14 43.41 78.39 41.86 78.39 39.38C78.39 36.28 81.13 34.15 84.69 34.15C88.27 34.15 90.79 36.31 90.92 39.23ZM7.49 36L1.38 36L1.38 34.42L15.34 34.42L15.34 36L9.24 36L9.24 53.67L7.49 53.67L7.49 36ZM22.38 53.67L20.62 53.67L20.62 34.42L26.83 34.42C30.92 34.42 33.03 36.82 33.03 40.18C33.03 42.76 31.79 44.73 29.4 45.52L33.84 53.67L31.81 53.67L27.59 45.86C27.36 45.88 27.11 45.89 26.86 45.89L22.38 45.89L22.38 53.67ZM40.73 47.87L38.67 53.67L36.83 53.67L43.84 34.42L45.71 34.42L52.72 53.67L50.87 53.67L48.81 47.87L40.73 47.87ZM70.6 34.42L72.33 34.42L72.33 53.67L70.62 53.67L59.25 37.55L59.1 37.55L59.1 53.67L57.34 53.67L57.34 34.42L59.04 34.42L70.45 50.56L70.6 50.56L70.6 34.42ZM98.51 53.67L96.75 53.67L96.75 34.42L107.89 34.42L107.89 36L98.51 36L98.51 43.25L107.02 43.25L107.02 44.82L98.51 44.82L98.51 53.67ZM124.95 53.67L113.6 53.67L113.6 34.42L124.76 34.42L124.76 36L115.35 36L115.35 43.25L124.17 43.25L124.17 44.82L115.35 44.82L115.35 52.09L124.95 52.09L124.95 53.67ZM132.38 53.67L130.63 53.67L130.63 34.42L136.84 34.42C140.93 34.42 143.04 36.82 143.04 40.18C143.04 42.76 141.8 44.73 139.4 45.52L143.85 53.67L141.82 53.67L137.6 45.86C137.37 45.88 137.12 45.89 136.86 45.89L132.38 45.89L132.38 53.67ZM22.38 36L22.38 44.28L26.81 44.28C29.83 44.28 31.3 42.7 31.3 40.18C31.3 37.66 29.83 36 26.78 36L22.38 36ZM132.38 36L132.38 44.28L136.82 44.28C139.84 44.28 141.31 42.7 141.31 40.18C141.31 37.66 139.84 36 136.79 36L132.38 36ZM44.71 36.71L41.3 46.29L48.25 46.29L44.84 36.71L44.71 36.71Z" fill="#003399" fill-opacity="1.000000" fill-rule="evenodd"/>
</svg>
